<svg id="Layer_1" height="512" viewBox="0 0 512 512" width="512" xmlns="http://www.w3.org/2000/svg" data-name="Layer 1"><path d="m494.718 207.58c9.14 61.5-31.58 118.51-90.97 127.34a107.5 107.5 0 0 1 -11.08 1.06l-2.1.08c-1.6-58.47-51.04-105.44-111.91-105.74v-.06c-3.97-57.84 35.59-109.66 91.97-118.04 59.39-8.83 114.94 33.86 124.09 95.36z" fill="#6c63b5"/><path d="m370.628 112.22c-56.38 8.38-95.939 60.2-91.969 118.04v.06l45.341 7.413v-.06c-3.969-57.84 35.59-109.66 91.97-118.04 3.176-.472 6.34-.788 9.487-.971a105.344 105.344 0 0 0 -54.829-6.442z" fill="#53508c"/><path d="m229.688 239.57.47 1.04c-38.23 17.37-64.69 54.91-64.69 98.4a105.4 105.4 0 0 0 5.96 35.01h-.01a106.26 106.26 0 0 1 -79.3 6.99c-57.41-17.57-89.19-80.01-70.99-139.46s79.49-93.4 136.9-75.82c35.88 10.98 61.75 39.49 71.66 73.84z" fill="#6c63b5"/><path d="m390.568 336.06c.04.98.05 1.96.05 2.95 0 60.04-50.4 108.71-112.57 108.71-49.5 0-91.53-30.84-106.62-73.7a105.4 105.4 0 0 1 -5.96-35.01c0-43.49 26.46-81.03 64.69-98.4a115.4 115.4 0 0 1 47.89-10.3c.2 0 .41 0 .61.01 60.87.3 110.31 47.27 111.91 105.74z" fill="#6c63b5"/><path d="m66.473 248.963c14.3-46.71 55.2-77.672 99.921-80.272-2.726-1.09-5.51-2.087-8.365-2.961-57.411-17.58-118.7 16.37-136.9 75.82s13.58 121.89 70.99 139.46a105.153 105.153 0 0 0 36.963 4.455c-52.068-20.83-79.902-80.013-62.609-136.502z" fill="#53508c"/><path d="m216.773 381.433a105.4 105.4 0 0 1 -5.96-35.01c0-43.49 26.46-81.03 64.69-98.4a115.166 115.166 0 0 1 43.7-10.217 115.757 115.757 0 0 0 -40.541-7.486c-.2-.01-.411-.01-.611-.01a115.393 115.393 0 0 0 -47.889 10.3c-38.231 17.37-64.691 54.91-64.691 98.4a105.427 105.427 0 0 0 5.96 35.01c15.09 42.86 57.12 73.7 106.62 73.7 1.417 0 2.826-.034 4.231-.084-30.71-11.636-54.843-35.91-65.509-66.203z" fill="#53508c"/><path d="m131.058 259.59-5.57 4.16a23.457 23.457 0 0 0 -8.11 26.5l2.28 6.56-6.38-2.74a23.467 23.467 0 0 0 -27.01 6.22l-4.54 5.26-.82-6.9a23.452 23.452 0 0 0 -18.89-20.27l-6.82-1.31 5.56-4.16a23.457 23.457 0 0 0 8.11-26.5l-2.28-6.56 6.39 2.74a23.436 23.436 0 0 0 27-6.22l4.54-5.26.82 6.9a23.474 23.474 0 0 0 18.9 20.28z" fill="#303051"/><path d="m449.518 223.72 4.88 4.95-6.94.27a23.46 23.46 0 0 0 -21.7 17.24l-1.84 6.7-3.7-5.88a23.476 23.476 0 0 0 -25.78-10.18l-6.72 1.76 3.23-6.15a23.468 23.468 0 0 0 -4.07-27.41l-4.89-4.94 6.94-.27a23.474 23.474 0 0 0 21.71-17.24l1.83-6.7 3.71 5.88a23.47 23.47 0 0 0 25.78 10.17l6.72-1.76-3.24 6.15a23.453 23.453 0 0 0 4.08 27.41z" fill="#303051"/><path d="m321.508 371.03-6.36 2.81a23.454 23.454 0 0 0 -13.86 24l.75 6.9-5.6-4.1a23.468 23.468 0 0 0 -27.72 0l-5.6 4.1.75-6.9a23.454 23.454 0 0 0 -13.86-24l-6.35-2.81 6.35-2.8a23.454 23.454 0 0 0 13.86-24l-.75-6.91 5.6 4.11a23.468 23.468 0 0 0 27.72 0l5.6-4.11-.75 6.91a23.454 23.454 0 0 0 13.86 24z" fill="#303051"/><path d="m269.817 79.788h17.628a71.774 71.774 0 0 1 71.774 71.774v17.628a0 0 0 0 1 0 0h-17.627a71.774 71.774 0 0 1 -71.774-71.774v-17.628a0 0 0 0 1 -.001 0z" fill="#67a829" transform="matrix(.458 .889 -.889 .458 281.147 -212.12)"/><path d="m341.859 79.95-6.727-13.056 1.681 10.172a71.763 71.763 0 0 1 -54.028 81.463 72.113 72.113 0 0 0 4.394 10.5l8.073 15.671 15.671-8.073a71.776 71.776 0 0 0 30.936-96.677z" fill="#8dd641"/><path d="m152.916 101.119h53.354a71.774 71.774 0 0 1 71.774 71.774v53.354a0 0 0 0 1 0 0h-53.354a71.774 71.774 0 0 1 -71.774-71.774v-53.354a0 0 0 0 1 0 0z" fill="#67a829"/><path d="m239.368 191.454a71.774 71.774 0 0 1 -71.774-71.774v-18.561h-14.678v53.354a71.774 71.774 0 0 0 71.775 71.774h53.354v-34.793z" fill="#8dd641"/><g fill="#151515"><path d="m54.066 282.962 6.826 1.311a17.385 17.385 0 0 1 14.058 15.085l.821 6.9a6 6 0 0 0 10.5 3.212l4.538-5.257a17.409 17.409 0 0 1 20.1-4.63l6.38 2.74a6 6 0 0 0 8.035-7.483l-2.28-6.56a17.4 17.4 0 0 1 6.033-19.722l5.57-4.16a6 6 0 0 0 -2.466-10.7l-6.818-1.3a17.407 17.407 0 0 1 -14.063-15.098l-.82-6.9a6 6 0 0 0 -10.5-3.212l-4.54 5.261a17.373 17.373 0 0 1 -20.094 4.625l-6.39-2.74a6 6 0 0 0 -8.032 7.484l2.28 6.562a17.393 17.393 0 0 1 -6.036 19.724l-5.561 4.16a6 6 0 0 0 2.462 10.7zm21.8-33.155a29.271 29.271 0 0 0 24.677-5.683 29.316 29.316 0 0 0 17.257 18.522 29.3 29.3 0 0 0 -7.41 24.21 29.317 29.317 0 0 0 -24.672 5.683 29.291 29.291 0 0 0 -17.265-18.521 29.3 29.3 0 0 0 7.409-24.211z"/><path d="m241.233 376.525 4.432 1.954 1.927.852a17.379 17.379 0 0 1 10.391 15.036 17.592 17.592 0 0 1 -.081 2.823l-.751 6.907a6 6 0 0 0 9.509 5.489l5.606-4.1a17.394 17.394 0 0 1 20.626 0l5.606 4.1a6 6 0 0 0 9.509-5.49l-.751-6.908a17.42 17.42 0 0 1 10.317-17.861l3-1.325 3.353-1.478a5.992 5.992 0 0 0 1.483-.934 6.209 6.209 0 0 0 .476-.47c.041-.045.09-.083.13-.129a6 6 0 0 0 -2.088-9.454l-6.361-2.8a17.515 17.515 0 0 1 -10.309-17.859l.751-6.906a6 6 0 0 0 -1.06-4.1l-.023-.028a5.793 5.793 0 0 0 -.517-.634 5.939 5.939 0 0 0 -1.373-1.086 6 6 0 0 0 -6.547.361l-3.676 2.7-1.919 1.4a17.394 17.394 0 0 1 -20.625 0l-2.774-2.031-2.825-2.073a6 6 0 0 0 -8.9 2.127c-.016.03-.026.063-.04.094a5.836 5.836 0 0 0 -.575 3.269l.751 6.907a17.727 17.727 0 0 1 .082 2.758 17.377 17.377 0 0 1 -10.4 15.1l-6.351 2.8a6 6 0 0 0 0 10.985zm28.687-27.413a29.3 29.3 0 0 0 25.318 0c.042.541.1 1.078.171 1.612v.035c.052.382.12.759.186 1.138.028.163.049.329.081.492.049.259.113.513.17.77.061.278.115.559.184.834.065.255.143.506.213.759.076.271.146.545.23.814a29.288 29.288 0 0 0 11.42 15.469c-.524.359-1.031.738-1.527 1.128a29.273 29.273 0 0 0 -6.441 7.013c-.2.306-.386.621-.575.935-.089.149-.187.294-.274.445a29.31 29.31 0 0 0 -3.75 11.54c-.031.287-.069.573-.092.862a29.3 29.3 0 0 0 -25.318 0 29.309 29.309 0 0 0 -12.659-21.924 29.3 29.3 0 0 0 12.663-21.922z"/><path d="m90.363 386.747a111.385 111.385 0 0 0 32.651 4.9 113.035 113.035 0 0 0 45.152-9.475c18.052 43.053 61.37 71.551 109.883 71.551 64.432 0 117.024-49.98 118.533-111.972 2.7-.2 5.391-.5 8.051-.894 62.558-9.3 105.634-69.483 96.021-134.157s-68.346-109.718-130.9-100.412a111.153 111.153 0 0 0 -14 3.005 77.731 77.731 0 0 0 -8.56-32.093l-8.07-15.67a6 6 0 0 0 -8.08-2.588l-15.683 8.072a77.837 77.837 0 0 0 -42.07 66.491 77.8 77.8 0 0 0 -67.021-38.385h-53.35a6 6 0 0 0 -6 6v53.35c0 .8.018 1.607.042 2.411a112.706 112.706 0 0 0 -76.988 13.753 121.461 121.461 0 0 0 -47.05 159.073c14.153 27.805 38.104 48.062 67.439 57.04zm230.493-309.062 10.344-5.325 5.326 10.34a65.565 65.565 0 0 1 7.158 34.474v.007a65.316 65.316 0 0 1 -35.511 54.119l-10.335 5.323-5.324-10.336a65.867 65.867 0 0 1 28.342-88.602zm-30.8 109.974a5.971 5.971 0 0 0 7.944 2.375l15.67-8.07a77.154 77.154 0 0 0 41.61-59.978 98.706 98.706 0 0 1 16.236-3.831c56.006-8.33 108.624 32.183 117.272 90.307s-29.9 112.2-85.915 120.523c-2.195.325-4.419.572-6.646.753a112.464 112.464 0 0 0 -35.26-72.719 119.766 119.766 0 0 0 -76.54-32.537 108.978 108.978 0 0 1 5.627-36.823zm-12 48.651h.152.165c.087 0 .175.007.263.008a108.045 108.045 0 0 1 74.087 29.414 100.393 100.393 0 0 1 31.854 70.49v.081c.037.9.045 1.8.045 2.7 0 56.635-47.806 102.71-106.569 102.71-45.711 0-86.284-28.007-100.959-69.688a99.39 99.39 0 0 1 -5.621-33.022c0-39.573 24.01-76.053 61.174-92.939a108.889 108.889 0 0 1 45.402-9.754zm-119.136-129.19h47.35a65.845 65.845 0 0 1 65.77 65.77v47.36h-47.35a66 66 0 0 1 -65.128-56.595c0-.015 0-.03-.006-.044a66.3 66.3 0 0 1 -.636-9.14zm-132.053 136.186a108.18 108.18 0 0 1 49.124-62.29 100.652 100.652 0 0 1 72.381-11.607 78.082 78.082 0 0 0 76.318 62.841h9.942c-2.341.894-4.662 1.854-6.956 2.9-41.434 18.827-68.207 59.6-68.207 103.863a111.381 111.381 0 0 0 4.638 31.835 99.99 99.99 0 0 1 -130.489-46.585 107.918 107.918 0 0 1 -6.751-80.957z"/><path d="m382.609 209.236a17.4 17.4 0 0 1 3.027 20.405l-3.23 6.15a6 6 0 0 0 6.833 8.593l6.714-1.759a17.415 17.415 0 0 1 19.188 7.57l3.7 5.88a6 6 0 0 0 5.077 2.805 5.926 5.926 0 0 0 .878-.065 6 6 0 0 0 4.908-4.345l1.842-6.7a17.4 17.4 0 0 1 16.146-12.833l6.941-.27a6 6 0 0 0 4.039-10.208l-4.887-4.957a17.386 17.386 0 0 1 -3.037-20.394l3.24-6.15a6 6 0 0 0 -6.828-8.6l-6.721 1.76a17.4 17.4 0 0 1 -19.185-7.568l-3.71-5.88a6 6 0 0 0 -10.862 1.621l-1.827 6.691a17.409 17.409 0 0 1 -16.155 12.832l-6.94.27a6 6 0 0 0 -4.031 10.217zm31.865-19.9a29.3 29.3 0 0 0 23.545 9.294 29.286 29.286 0 0 0 3.727 25.045 29.3 29.3 0 0 0 -19.823 15.746 29.32 29.32 0 0 0 -21.494-9.368q-1.027 0-2.06.072a29.3 29.3 0 0 0 -3.718-25.042 29.319 29.319 0 0 0 19.823-15.752z"/></g></svg>