<svg id="_x33_0" enable-background="new 0 0 64 64" height="512" viewBox="0 0 64 64" width="512" xmlns="http://www.w3.org/2000/svg"><g><g><g><path d="m41.82 44.64 8.52 8.52c-3.91 3.38-8.77 5.71-14.12 6.52.49-.77.78-1.69.78-2.68 0-3-5-9-5-9 3.7 0 7.11-1.26 9.82-3.36z" fill="#ffeaa7"/></g><g><path d="m32 48s-5 6-5 9c0 .99.29 1.91.78 2.68-5.35-.81-10.21-3.14-14.12-6.52l8.52-8.52c2.71 2.1 6.12 3.36 9.82 3.36z" fill="#ffeaa7"/></g><g><path d="m6.56 37.56 4.44 4.44c.83 0 1.58-.34 2.12-.88s.88-1.29.88-2.12l-3.44-3.44c.87-.52 1.44-1.47 1.44-2.56 0-1.31-.85-2.41-2.02-2.82 0-.06.02-.12.02-.18 0-2.21-1.79-4-4-4-.49 0-.97.09-1.4.26l-.01-.01c1-4.75 3.19-9.06 6.25-12.59l8.52 8.52c-2.1 2.71-3.36 6.12-3.36 9.82s1.26 7.11 3.36 9.82l-8.52 8.52c-3.01-3.47-5.18-7.7-6.2-12.36v-.01c.12.02.24.03.36.03.58 0 1.11-.16 1.56-.44z" fill="#ffeaa7"/></g><g><path d="m36 15v1c0 .18.02.36.07.52-1.3-.34-2.66-.52-4.07-.52-3.7 0-7.11 1.26-9.82 3.36l-8.52-8.52c3.64-3.15 8.11-5.39 13.03-6.34-.44.75-.69 1.62-.69 2.55 0 2.32 1.58 4.34 3.83 4.91l4.17 1.04z" fill="#ffeaa7"/></g><g><path d="m58.76 39c.13 0 .25-.01.37-.05v.01c-1.1 4.27-3.18 8.15-5.97 11.38l-8.52-8.52c2.1-2.71 3.36-6.12 3.36-9.82s-1.26-7.11-3.36-9.82l8.52-8.52c2.84 3.28 4.93 7.23 6.01 11.58-.85.36-1.5 1.1-1.74 2.03l-.43 1.73-1.32-.66c-.45-.22-.94-.34-1.44-.34-.62 0-1.18.25-1.58.66-.41.4-.66.96-.66 1.58 0 1.17.16 2.33.48 3.46l1.18 4.11c.2.7.85 1.19 1.58 1.19.49 0 .95-.19 1.3-.54l.46-.46.46.46c.35.35.81.54 1.3.54z" fill="#ffeaa7"/></g><g><path d="m50.34 10.84-8.52 8.52c-.84-.65-1.74-1.22-2.7-1.7.1-.07.2-.16.29-.25.37-.36.59-.86.59-1.41.55 0 1.05-.22 1.41-.59.37-.36.59-.86.59-1.41 0-1.1-.9-2-2-2h-1l-2-2-1.04-4.17c-.15-.61-.41-1.16-.75-1.65 5.75.66 10.98 3.07 15.13 6.66z" fill="#ffeaa7"/></g><g><path d="m40 12c1.1 0 2 .9 2 2 0 .55-.22 1.05-.59 1.41-.36.37-.86.59-1.41.59 0 .55-.22 1.05-.59 1.41-.09.09-.19.18-.29.25-.01 0-.01 0-.01 0-.32.22-.7.34-1.11.34-.55 0-1.05-.22-1.41-.59-.25-.24-.43-.55-.52-.89-.05-.16-.07-.34-.07-.52v-1l-2-2 3-3 2 2z" fill="#e6e9ed"/></g><g><path d="m35.96 5.83 1.04 4.17-3 3-4.17-1.04c-2.25-.57-3.83-2.59-3.83-4.91 0-.93.25-1.8.69-2.55.22-.38.48-.72.79-1.02.91-.92 2.18-1.48 3.57-1.48 1.7 0 3.23.85 4.16 2.18.34.49.6 1.04.75 1.65z" fill="#dfb28b"/></g><g><path d="m9 36c.57 0 1.11-.16 1.56-.44l3.44 3.44c0 .83-.34 1.58-.88 2.12s-1.29.88-2.12.88l-4.44-4.44c.64-.4 1.12-1.03 1.32-1.78.35.14.72.22 1.12.22z" fill="#ff826e"/></g><g><path d="m6.56 37.56c-.45.28-.98.44-1.56.44-.12 0-.24-.01-.36-.03-1.49-.17-2.64-1.43-2.64-2.97 0-.92.42-1.74 1.08-2.29-.67-.71-1.08-1.66-1.08-2.71 0-1.72 1.08-3.18 2.6-3.74.43-.17.91-.26 1.4-.26 2.21 0 4 1.79 4 4 0 .06-.02.12-.02.18 1.17.41 2.02 1.51 2.02 2.82 0 1.09-.57 2.04-1.44 2.56-.45.28-.99.44-1.56.44-.4 0-.77-.08-1.12-.22-.2.75-.68 1.38-1.32 1.78z" fill="#b4dd7f"/></g><g><path d="m32 48s5 6 5 9c0 .99-.29 1.91-.78 2.68-.89 1.39-2.45 2.32-4.22 2.32s-3.33-.93-4.22-2.32c-.49-.77-.78-1.69-.78-2.68 0-3 5-9 5-9z" fill="#69d6f4"/></g><g><path d="m62 25-.43 1.73c-.15.59-.46 1.09-.89 1.46-.54.52-1.25.81-2.02.81h-1.66l.43-1.73c.24-.93.89-1.67 1.74-2.03.36-.15.76-.24 1.17-.24z" fill="#b4dd7f"/></g><g><path d="m60.69 28.2c.78.36 1.31 1.13 1.31 2.04 0 1.17-.16 2.33-.48 3.46l-1.18 4.11c-.17.58-.64 1.01-1.21 1.14-.12.04-.24.05-.37.05-.49 0-.95-.19-1.3-.54l-.46-.46-.46.46c-.35.35-.81.54-1.3.54-.73 0-1.38-.49-1.58-1.19l-1.18-4.11c-.32-1.13-.48-2.29-.48-3.46 0-.62.25-1.18.66-1.58.4-.41.96-.66 1.58-.66.5 0 .99.12 1.44.34l1.32.66h1.66c.77 0 1.48-.29 2.02-.81z" fill="#ff826e"/></g><g><path d="m40.34 35.38c0 .01-.04.11-.05.13-.33.83-.18 1.77.45 2.41l1.16 1.15-2.83 2.83-1.15-1.16c-.65-.65-1.62-.78-2.46-.43-.02.01-.03.01-.04.02-.84.34-1.42 1.12-1.42 2.03v1.64h-4v-1.64c0-.91-.58-1.69-1.42-2.03-.01-.01-.02-.01-.04-.02-.84-.35-1.81-.22-2.46.43l-1.15 1.16-2.83-2.83 1.16-1.15c.65-.65.78-1.62.43-2.46-.01-.02-.01-.03-.02-.04-.34-.84-1.12-1.42-2.03-1.42h-1.64v-4h1.64c.91 0 1.69-.58 2.03-1.42.01-.01.01-.02.02-.04.35-.84.22-1.81-.43-2.46l-1.16-1.15 2.83-2.83 1.15 1.16c.65.65 1.62.78 2.46.43.02-.01.03-.01.04-.02.84-.34 1.42-1.12 1.42-2.03v-1.64h4v1.64c0 .91.58 1.69 1.42 2.03.01.01.02.01.04.02.84.35 1.81.22 2.46-.43l1.15-1.16 2.83 2.83-1.16 1.15c-.65.65-.78 1.62-.43 2.46.01.02.01.03.02.04.34.84 1.12 1.42 2.03 1.42h1.64v4h-1.64c-.89 0-1.66.56-2.02 1.38zm-2.34-3.38c0-3.31-2.69-6-6-6s-6 2.69-6 6 2.69 6 6 6 6-2.69 6-6z" fill="#ffc729"/></g><g><path d="m32 26c3.31 0 6 2.69 6 6s-2.69 6-6 6-6-2.69-6-6 2.69-6 6-6zm2 6c0-1.1-.9-2-2-2s-2 .9-2 2 .9 2 2 2 2-.9 2-2z" fill="#fcd770"/></g></g><g><path d="m32 29c-1.654 0-3 1.346-3 3s1.346 3 3 3 3-1.346 3-3-1.346-3-3-3zm0 4c-.551 0-1-.449-1-1s.449-1 1-1 1 .449 1 1-.449 1-1 1z"/><path d="m32 25c-3.86 0-7 3.14-7 7 0 3.859 3.14 7 7 7s7-3.141 7-7c0-3.86-3.14-7-7-7zm0 12c-2.757 0-5-2.243-5-5s2.243-5 5-5 5 2.243 5 5-2.243 5-5 5z"/><path d="m43.316 24.932-4.248-4.248-1.858 1.867c-.337.338-.873.423-1.41.198-.493-.205-.8-.629-.8-1.11v-2.639h-6v2.639c0 .48-.307.905-.842 1.128-.494.207-1.031.122-1.367-.216l-1.859-1.867-4.248 4.248 1.867 1.858c.338.337.423.874.198 1.41-.205.493-.629.8-1.11.8h-2.639v6h2.639c.473 0 .909.313 1.128.842.21.502.127 1.025-.216 1.368l-1.867 1.859 4.248 4.247 1.858-1.868c.343-.343.866-.427 1.41-.197.494.204.8.63.8 1.109v2.64h6v-2.64c0-.479.307-.905.843-1.127.5-.211 1.025-.128 1.367.215l1.858 1.868 4.248-4.247-1.867-1.86c-.333-.331-.42-.84-.23-1.33l.042-.101c.208-.48.629-.778 1.1-.778h2.639v-6h-2.639c-.48 0-.905-.307-1.128-.842-.207-.494-.123-1.031.216-1.367zm-.955 6.068h.639v2h-.639c-1.26 0-2.413.777-2.939 1.99l-.062.15c-.484 1.228-.218 2.597.677 3.486l.447.445-1.413 1.413-.445-.446c-.914-.919-2.311-1.173-3.592-.635-1.235.513-2.034 1.673-2.034 2.957v.64h-2v-.64c0-1.284-.799-2.444-2.067-2.971-1.25-.526-2.646-.271-3.56.648l-.444.446-1.413-1.413.447-.445c.918-.914 1.172-2.311.634-3.592-.513-1.234-1.673-2.033-2.958-2.033h-.639v-2h.639c1.285 0 2.446-.799 2.972-2.068.524-1.248.27-2.645-.648-3.56l-.446-.444 1.413-1.413.444.446c.914.917 2.312 1.172 3.592.634 1.235-.51 2.034-1.671 2.034-2.956v-.639h2v.639c0 1.285.799 2.446 2.068 2.972 1.25.524 2.645.27 3.56-.648l.444-.446 1.413 1.413-.446.444c-.918.914-1.172 2.311-.634 3.592.51 1.235 1.671 2.034 2.956 2.034z"/><path d="m20.15 41.208c-2.061-2.66-3.15-5.844-3.15-9.208s1.089-6.548 3.15-9.207l.54-.697-9.903-9.903-.703.813c-3.12 3.604-5.304 7.942-6.355 12.565-1.612.831-2.729 2.494-2.729 4.429 0 .945.27 1.861.773 2.654-.498.678-.773 1.496-.773 2.346 0 1.792 1.192 3.294 2.818 3.802 1.081 4.481 3.231 8.687 6.265 12.193l.704.813 9.903-9.902zm-17.15-6.208c0-.58.263-1.135.722-1.521l.803-.677-.715-.768c-.522-.562-.81-1.284-.81-2.034 0-1.654 1.346-3 3-3s3 1.346 3.001 2.957l-.054.919.706.246c.805.281 1.347 1.036 1.347 1.878 0 1.351-1.412 2.385-2.744 1.853l-1.044-.419-.293 1.086c-.236.871-1.025 1.48-1.919 1.48-1.103 0-2-.897-2-2zm9.964 4.378c-.153.801-.786 1.433-1.585 1.586l-3.364-3.364c.17-.198.327-.406.457-.636.175.024.351.036.528.036.472 0 .918-.097 1.339-.247zm-2.056 9.479c-2.346-2.94-4.054-6.35-5.009-9.969.151-.035.299-.08.444-.133l4.243 4.245h.414c2.206 0 4-1.794 4-4v-.414l-2.986-2.986c.606-.701.986-1.603.986-2.6 0-1.446-.789-2.761-2.021-3.463-.234-2.541-2.378-4.537-4.979-4.537-.028 0-.053.008-.081.008.961-3.582 2.663-6.952 4.988-9.866l7.138 7.138c-1.995 2.862-3.045 6.204-3.045 9.72s1.05 6.858 3.045 9.721z"/><path d="m22.793 20.15c2.659-2.061 5.843-3.15 9.207-3.15 1.132 0 2.257.135 3.355.385.502.955 1.493 1.615 2.645 1.615.383 0 .745-.079 1.082-.21.741.397 1.46.844 2.126 1.36l.696.54 9.903-9.903-.813-.704c-4.334-3.751-9.601-6.099-15.25-6.83-1.122-1.384-2.815-2.253-4.69-2.253-2.063 0-3.887 1.039-4.98 2.62-4.815 1.004-9.327 3.226-13.068 6.464l-.813.704 9.903 9.903zm14.207-4.15v-1.414l-1.586-1.586 1.586-1.586 1.586 1.586h1.414c.551 0 1 .449 1 1s-.449 1-1 1h-1v1c0 .551-.449 1-1 1s-1-.449-1-1zm11.858-5.092-7.139 7.138c-.343-.238-.695-.464-1.055-.677.082-.159.154-.324.207-.498 1.231-.374 2.129-1.519 2.129-2.871 0-1.654-1.346-3-3-3h-.586l-1.511-1.511-.976-3.903c-.012-.049-.035-.093-.048-.141 4.381.799 8.476 2.662 11.979 5.463zm-17.804-7.908c1.863 0 3.48 1.263 3.933 3.071l.906 3.622-2.199 2.199-3.622-.906c-1.809-.451-3.072-2.069-3.072-3.932 0-2.235 1.819-4.054 4.054-4.054zm-5.94 2.894c-.073.376-.114.763-.114 1.16 0 2.783 1.886 5.198 4.585 5.873l3.903.976 1.341 1.341c-.933-.157-1.879-.244-2.829-.244-3.516 0-6.858 1.05-9.72 3.045l-7.138-7.138c2.945-2.35 6.349-4.057 9.972-5.013z"/><path d="m41.207 43.85c-2.659 2.06-5.843 3.15-9.207 3.15s-6.548-1.09-9.207-3.15l-.697-.54-9.903 9.903.813.703c4.047 3.504 8.95 5.799 14.199 6.675 1.095 1.459 2.834 2.409 4.795 2.409s3.7-.95 4.796-2.409c5.248-.876 10.151-3.171 14.199-6.675l.813-.703-9.903-9.903zm-26.065 9.243 7.138-7.139c2.324 1.621 4.967 2.605 7.759 2.923-1.561 2.078-4.039 5.747-4.039 8.123 0 .47.06.926.163 1.365-4.02-.888-7.785-2.687-11.021-5.272zm16.858 7.907c-2.206 0-4-1.794-4-4 0-1.669 2.211-5.082 4-7.399 1.789 2.317 4 5.73 4 7.399 0 2.206-1.794 4-4 4zm5.837-2.635c.103-.439.163-.895.163-1.365 0-2.376-2.478-6.045-4.039-8.123 2.793-.318 5.435-1.302 7.759-2.923l7.138 7.139c-3.236 2.585-7.001 4.384-11.021 5.272z"/><path d="m62.538 26.97.743-2.97h-2.938c-.158 0-.311.021-.465.039-1.156-4.041-3.197-7.84-5.961-11.033l-.703-.813-9.903 9.903.54.697c2.06 2.659 3.149 5.843 3.149 9.207s-1.089 6.548-3.15 9.208l-.54.696 9.903 9.902.704-.813c2.82-3.258 4.892-7.151 6.033-11.284.643-.327 1.146-.907 1.353-1.629l1.175-4.11c.346-1.215.522-2.471.522-3.734 0-.839-.328-1.631-.885-2.222.186-.32.33-.67.423-1.044zm-1.819-.97-.122.485c-.222.892-1.02 1.515-1.939 1.515h-.377l.122-.485c.222-.892 1.02-1.515 1.939-1.515zm-7.627 22.857-7.137-7.137c1.995-2.862 3.045-6.204 3.045-9.72s-1.05-6.858-3.045-9.72l7.138-7.138c2.266 2.841 3.943 6.137 4.913 9.62-.745.538-1.308 1.323-1.544 2.267l-.129.519-.202-.101c-.586-.292-1.241-.447-1.895-.447-1.784 0-3.236 1.452-3.236 3.236 0 1.263.176 2.52.523 3.735l1.175 4.11c.323 1.13 1.368 1.919 2.543 1.919.647 0 1.261-.216 1.759-.612.252.2.534.354.834.457-.992 3.258-2.609 6.338-4.742 9.012zm7.462-15.435-1.175 4.11c-.14.489-.847.583-1.209.224l-1.17-1.169-1.17 1.169c-.361.359-1.069.266-1.209-.224l-1.175-4.11c-.296-1.037-.446-2.109-.446-3.186 0-.682.554-1.236 1.236-1.236.345 0 .691.082 1 .236l1.528.764h1.894c.743 0 1.445-.203 2.049-.563.185.22.293.501.293.799 0 1.077-.15 2.149-.446 3.186z"/></g></g></svg>